#!OML:ASF E:\Style4\Style4.ASF
:FULLY-SPECIFIED
:DEGREES
3023
root 0.228034 17.5383 -0.429109 -1.15044 -5.37323 4.35113
lowerback 5.86311 0.829756 -2.10297
upperback -0.215542 0.979012 0.546387
thorax -3.55629 0.529799 1.65803
lowerneck -0.145487 -2.90207 -4.83096
upperneck -7.54645 -3.68076 4.90591
head -2.18746 -1.82887 2.48464
rclavicle 1.82633e-014 8.74653e-015
rhumerus 37.3892 27.9893 -55.6764
rradius 121.098
rwrist 10.4606
rhand -41.9492 45.4899
rfingers 7.12502
rthumb -14.8462 16.0418
lclavicle 1.82633e-014 8.74653e-015
lhumerus 40.5035 -32.6127 56.8092
lradius 124.293
lwrist -3.34784
lhand -30.4392 20.818
lfingers 7.12502
lthumb -3.7416 50.7649
rfemur -14.0792 1.02021 13.2656
rtibia 38.9202
rfoot -21.9144 -14.2016
rtoes -13.9047
lfemur -9.06499 1.63128 -25.1501
ltibia 33.0795
lfoot -23.8277 12.115
ltoes -10.094
3024
root 0.237913 17.5356 -0.433201 -1.13727 -5.83822 4.32361
lowerback 5.91517 0.720662 -2.1473
upperback -0.208108 0.832109 0.621494
thorax -3.57306 0.458377 1.7733
lowerneck -0.363999 -2.85434 -5.07107
upperneck -7.33807 -3.61137 5.00737
head -2.07877 -1.78891 2.55112
rclavicle -4.91992e-015 3.18055e-015
rhumerus 37.483 27.9975 -55.6813
rradius 121.011
rwrist 10.5332
rhand -41.6608 45.6574
rfingers 7.12502
rthumb -14.5683 16.189
lclavicle -4.91992e-015 3.18055e-015
lhumerus 40.3637 -32.6217 56.9667
lradius 124.297
lwrist -3.43273
lhand -30.5171 20.6988
lfingers 7.12502
lthumb -3.81679 50.6444
rfemur -14.2855 1.27291 13.27
rtibia 39.053
rfoot -21.9422 -13.9807
rtoes -13.8084
lfemur -9.11553 1.81527 -25.1648
ltibia 33.1629
lfoot -23.9754 12.3297
ltoes -10.0575
3025
root 0.24729 17.5309 -0.436904 -1.13942 -6.27326 4.45409
lowerback 5.92663 0.639572 -2.33757
upperback -0.164145 0.712082 0.660007
thorax -3.53133 0.401583 1.93107
lowerneck -0.713427 -2.86398 -5.48573
upperneck -7.02322 -3.60863 5.24989
head -1.90433 -1.77977 2.69238
rclavicle 2.30839e-014 -4.77083e-015
rhumerus 37.5575 27.8708 -55.6707
rradius 120.876
rwrist 10.6789
rhand -41.2227 46.1139
rfingers 7.12502
rthumb -14.1462 16.6156
lclavicle 2.30839e-014 -4.77083e-015
lhumerus 40.3553 -32.6408 57.1272
lradius 124.337
lwrist -3.43672
lhand -30.3672 20.7504
lfingers 7.12502
lthumb -3.67211 50.6985
rfemur -14.4951 1.47533 13.0898
rtibia 39.1984
rfoot -21.9616 -13.7096
rtoes -13.7124
lfemur -9.19299 1.99365 -25.3537
ltibia 33.3048
lfoot -24.1849 12.4782
ltoes -9.81204
3026
root 0.255295 17.5252 -0.44102 -1.16097 -6.73482 4.45486
lowerback 5.98525 0.642944 -2.28792
upperback -0.139318 0.719402 0.676187
thorax -3.53851 0.404279 1.91886
lowerneck -0.785657 -2.92821 -5.77778
upperneck -6.92588 -3.68915 5.40463
head -1.84866 -1.81562 2.79469
rclavicle -6.21202e-016 -4.77083e-015
rhumerus 37.4582 27.8002 -55.5472
rradius 120.841
rwrist 10.6518
rhand -41.2891 46.4223
rfingers 7.12502
rthumb -14.2102 16.9284
lclavicle -6.21202e-016 -4.77083e-015
lhumerus 40.5045 -32.8882 57.2496
lradius 124.47
lwrist -3.26895
lhand -29.6527 21.3718
lfingers 7.12502
lthumb -2.98202 51.3307
rfemur -14.7073 1.74289 13.0664
rtibia 39.3394
rfoot -21.8867 -13.5774
rtoes -13.7793
lfemur -9.26461 2.25205 -25.3853
ltibia 33.4938
lfoot -24.3803 12.6068
ltoes -9.78096
3027
root 0.261636 17.5195 -0.447031 -1.16131 -7.2044 4.36002
lowerback 6.08541 0.632782 -2.15548
upperback -0.159128 0.71199 0.651124
thorax -3.61287 0.398999 1.81825
lowerneck -0.648182 -2.97247 -5.63101
upperneck -6.9733 -3.75657 5.33633
head -1.88763 -1.85307 2.74942
rclavicle 1.0461e-014 5.56597e-015
rhumerus 37.289 27.8371 -55.5562
rradius 120.877
rwrist 10.2744
rhand -41.6206 47.0816
rfingers 7.12502
rthumb -14.5296 17.6104
lclavicle 1.0461e-014 5.56597e-015
lhumerus 40.5812 -33.1881 57.2107
lradius 124.629
lwrist -3.00905
lhand -28.852 21.9303
lfingers 7.12502
lthumb -2.20882 51.8986
rfemur -14.9509 2.01165 13.1622
rtibia 39.4917
rfoot -21.7876 -13.5262
rtoes -14.2156
lfemur -9.39359 2.53873 -25.3081
ltibia 33.7217
lfoot -24.459 12.8242
ltoes -10.0627
3028
root 0.267269 17.5121 -0.453479 -1.17706 -7.61258 4.30244
lowerback 6.20033 0.523862 -2.20052
upperback -0.152567 0.560922 0.64729
thorax -3.66385 0.32522 1.85291
lowerneck -0.626442 -2.91674 -5.26072
upperneck -6.94982 -3.68985 5.13689
head -1.89568 -1.82543 2.61407
rclavicle -1.30701e-014 7.15625e-015
rhumerus 37.2865 27.9603 -55.6758
rradius 120.831
rwrist 10.0099
rhand -41.6035 47.4601
rfingers 7.12502
rthumb -14.5131 17.9877
lclavicle -1.30701e-014 7.15625e-015
lhumerus 40.5153 -33.2964 57.1684
lradius 124.698
lwrist -2.87492
lhand -28.9167 21.9532
lfingers 7.12502
lthumb -2.27128 51.9209
rfemur -15.1436 2.2435 13.2142
rtibia 39.6568
rfoot -21.8293 -13.3606
rtoes -14.1871
lfemur -9.53144 2.76607 -25.2683
ltibia 33.98
lfoot -24.4951 13.0672
ltoes -10.7378
3029
root 0.273854 17.5037 -0.457304 -1.17917 -8.0229 4.27592
lowerback 6.25902 0.404514 -2.28061
upperback -0.121217 0.396367 0.68846
thorax -3.65723 0.244901 1.95581
lowerneck -0.66383 -2.82955 -5.107
upperneck -6.94048 -3.57599 5.02941
head -1.89593 -1.77011 2.54824
rclavicle 1.73937e-016 -3.18055e-015
rhumerus 37.3464 28.1082 -55.7026
rradius 120.812
rwrist 9.94126
rhand -41.5324 46.9833
rfingers 7.12502
rthumb -14.4447 17.506
lclavicle 1.73937e-016 -3.18055e-015
lhumerus 40.4445 -33.2728 57.2553
lradius 124.776
lwrist -2.74778
lhand -29.4518 21.6896
lfingers 7.12502
lthumb -2.78801 51.6511
rfemur -15.3725 2.47738 13.2266
rtibia 39.8733
rfoot -21.8485 -13.2327
rtoes -14.3954
lfemur -9.66194 2.99974 -25.259
ltibia 34.2333
lfoot -24.6682 13.2489
ltoes -11.2146
